HIERARCHY
ROOT Hips
{
	OFFSET 0.000000 0.000000 0.000000
	CHANNELS 6 Xposition Yposition Zposition Xrotation Yrotation Zrotation
	JOINT LeftUpLeg_virtual
	{
		OFFSET 0.000000 0.000000 0.000000
		CHANNELS 3 Xrotation Yrotation Zrotation
		JOINT LeftUpLeg
		{
			OFFSET 0.086025 -0.002322 0.060046
			CHANNELS 3 Xrotation Yrotation Zrotation
			JOINT LeftLeg
			{
				OFFSET 0.005130 0.001862 0.314250
				CHANNELS 3 Xrotation Yrotation Zrotation
				JOINT LeftFoot
				{
					OFFSET 0.029099 0.003055 0.305414
					CHANNELS 3 Xrotation Yrotation Zrotation
					JOINT LeftToeBase
					{
						OFFSET 0.032406 0.158115 0.089037
						CHANNELS 3 Xrotation Yrotation Zrotation
						JOINT LeftToe_End
						{
							OFFSET 0.020098 0.068010 -0.003802
							CHANNELS 3 Xrotation Yrotation Zrotation
							End Site
							{
								OFFSET 0 0 0
							}
						}
					}
				}
			}
		}
	}
	JOINT RightUpLeg_virtual
	{
		OFFSET 0.000000 0.000000 0.000000
		CHANNELS 3 Xrotation Yrotation Zrotation
		JOINT RightUpLeg
		{
			OFFSET -0.086024 0.004521 0.060047
			CHANNELS 3 Xrotation Yrotation Zrotation
			JOINT RightLeg
			{
				OFFSET -0.005129 0.001774 0.314251
				CHANNELS 3 Xrotation Yrotation Zrotation
				JOINT RightFoot
				{
					OFFSET -0.029099 0.004797 0.305414
					CHANNELS 3 Xrotation Yrotation Zrotation
					JOINT RightToeBase
					{
						OFFSET -0.032405 0.159308 0.089036
						CHANNELS 3 Xrotation Yrotation Zrotation
						JOINT RightToe_End
						{
							OFFSET -0.020098 0.066652 -0.003802
							CHANNELS 3 Xrotation Yrotation Zrotation
							End Site
							{
								OFFSET 0 0 0
							}
						}
					}
				}
			}
		}
	}
	JOINT Spine_virtual
	{
		OFFSET 0.000000 0.000000 0.000000
		CHANNELS 3 Xrotation Yrotation Zrotation
		JOINT Spine
		{
			OFFSET 0.000000 -0.008525 -0.108039
			CHANNELS 3 Xrotation Yrotation Zrotation
			JOINT Spine1
			{
				OFFSET 0.000000 -0.009946 -0.126046
				CHANNELS 3 Xrotation Yrotation Zrotation
				JOINT Spine2
				{
					OFFSET 0.000000 -0.011367 -0.144052
					CHANNELS 3 Xrotation Yrotation Zrotation
					JOINT Neck_virtual
					{
						OFFSET 0.000000 0.000000 0.000000
						CHANNELS 3 Xrotation Yrotation Zrotation
						JOINT Neck
						{
							OFFSET 0.000000 -0.012788 -0.162059
							CHANNELS 3 Xrotation Yrotation Zrotation
							JOINT Head
							{
								OFFSET 0.000000 -0.019313 -0.077391
								CHANNELS 3 Xrotation Yrotation Zrotation
								JOINT HeadTop_End
								{
									OFFSET 0.000000 -0.142419 -0.570699
									CHANNELS 3 Xrotation Yrotation Zrotation
									End Site
									{
										OFFSET 0 0 0
									}
								}
							}
						}
					}
					JOINT LeftShoulder_virtual
					{
						OFFSET 0.000000 0.000000 0.000000
						CHANNELS 3 Xrotation Yrotation Zrotation
						JOINT LeftShoulder
						{
							OFFSET 0.059117 -0.013497 -0.154003
							CHANNELS 3 Xrotation Yrotation Zrotation
							JOINT LeftArm
							{
								OFFSET 0.105067 -0.001420 0.016848
								CHANNELS 3 Xrotation Yrotation Zrotation
								JOINT LeftForeArm
								{
									OFFSET 0.311627 -0.003307 -0.007856
									CHANNELS 3 Xrotation Yrotation Zrotation
									JOINT LeftHand
									{
										OFFSET 0.267365 -0.006620 -0.009061
										CHANNELS 3 Xrotation Yrotation Zrotation
										End Site
										{
											OFFSET 0 0 0
										}
									}
								}
							}
						}
					}
					JOINT RightShoulder_virtual
					{
						OFFSET 0.000000 0.000000 0.000000
						CHANNELS 3 Xrotation Yrotation Zrotation
						JOINT RightShoulder
						{
							OFFSET -0.059117 -0.012078 -0.154003
							CHANNELS 3 Xrotation Yrotation Zrotation
							JOINT RightArm
							{
								OFFSET -0.105067 0.001420 0.016849
								CHANNELS 3 Xrotation Yrotation Zrotation
								JOINT RightForeArm
								{
									OFFSET -0.311626 -0.007328 -0.007857
									CHANNELS 3 Xrotation Yrotation Zrotation
									JOINT RightHand
									{
										OFFSET -0.267364 -0.007689 -0.009061
										CHANNELS 3 Xrotation Yrotation Zrotation
										End Site
										{
											OFFSET 0 0 0
										}
									}
								}
							}
						}
					}
				}
			}
		}
	}
}
MOTION
Frames: 5
Frame Time: 0.03333333
0.000220 0.739205 -0.000648 0.000000 0.000000 0.000000 91.587892 9.176702 -129.733214 -14.443333 5.727498 3.482033 34.260243 3.477224 6.304138 -16.927271 -8.401458 12.322799 -0.972295 0.042607 0.000330 0.000000 0.000000 0.000000 91.568030 8.904367 -127.719401 -10.663109 -8.124675 4.170154 33.233231 6.351322 11.867340 -18.815839 4.938483 20.880730 -2.759755 -0.460345 -0.013703 0.000000 0.000000 0.000000 91.934777 9.171160 -128.013181 9.266834 3.381706 -13.014909 0.748527 -8.390883 -1.887895 0.000000 0.000000 0.000000 1.007294 -8.274345 -1.684753 -5.538878 -7.708372 6.678595 -14.788854 14.694250 46.148170 0.000000 0.000000 0.000000 1.013148 -8.064679 -1.691551 0.095534 2.390222 -2.665828 62.753101 -15.341853 39.357551 1.634456 0.877505 79.717235 0.000000 0.000000 0.000000 1.001539 -8.387187 -1.732752 -0.521567 -16.866421 -8.185768 7.468564 15.847330 -21.000516 3.348758 0.258922 -8.981694 0.000000 0.000000 0.000000 
-0.028378 0.724136 0.013794 0.000000 0.000000 0.000000 91.972315 10.896202 -132.037529 -15.222581 7.777282 3.829592 38.511578 6.640825 7.440050 -18.920824 -11.314422 14.960018 -2.092283 0.047691 0.005301 0.000000 0.000000 0.000000 91.483520 11.697005 -135.960557 -9.839997 -5.530554 8.554645 41.799416 6.685016 11.456873 -21.205256 2.737108 20.124254 -2.452904 0.338575 -0.005177 0.000000 0.000000 0.000000 92.191571 10.863297 -132.766747 13.504741 3.183271 -12.556241 1.577361 -8.121312 -1.928953 0.000000 0.000000 0.000000 1.778203 -8.216567 -1.739697 -6.912316 -8.243535 7.113363 -19.447123 11.249558 50.858893 0.000000 0.000000 0.000000 1.856412 -8.138835 -1.716247 0.148735 2.201649 -1.558103 51.310416 -21.740695 33.330879 1.479685 0.681208 77.432618 0.000000 0.000000 0.000000 1.744807 -8.075527 -1.728596 -0.302974 -16.552617 -5.902512 -18.985479 16.679704 -8.438709 3.733515 0.168336 -10.231425 0.000000 0.000000 0.000000 
-0.050087 0.706384 0.027506 0.000000 0.000000 0.000000 90.687816 13.097237 -134.786079 -15.215821 12.336299 2.026188 45.115151 9.170765 7.759519 -23.988733 -13.373346 13.693345 0.001381 0.034984 -0.003408 0.000000 0.000000 0.000000 91.689416 14.185736 -148.127733 -7.614372 -1.385392 10.059510 47.479893 8.493336 12.644781 -26.687501 1.735714 20.284671 -1.297177 0.138805 0.003881 0.000000 0.000000 0.000000 88.687172 13.652017 -131.004586 17.892775 3.661263 -10.363405 1.575241 -5.803339 -1.578695 0.000000 0.000000 0.000000 1.733040 -5.874499 -1.355919 -6.652134 -6.856650 7.428017 -20.621726 8.286182 50.663939 0.000000 0.000000 0.000000 1.784090 -5.783777 -1.354810 0.802722 -0.386622 3.502929 42.972487 -34.053708 33.716440 1.506651 0.697626 76.901585 0.000000 0.000000 0.000000 1.657413 -5.715778 -1.324183 -0.055364 -13.673254 -1.612011 -33.426150 16.489801 -6.299796 3.512967 0.156193 -10.681794 0.000000 0.000000 0.000000 
-0.059477 0.691707 0.035323 0.000000 0.000000 0.000000 86.160514 17.376052 -129.117787 -13.979761 17.987197 -2.832096 53.701481 10.229154 7.312032 -28.283238 -12.254159 9.271334 -1.530061 -0.058925 -0.021613 0.000000 0.000000 0.000000 89.720238 16.637383 -145.886366 -5.345995 1.530292 9.448767 52.066293 9.779137 12.993403 -29.431193 0.663212 18.493041 -2.804412 -0.175364 -0.002988 0.000000 0.000000 0.000000 83.560514 17.644639 -122.872303 21.703531 4.616791 -6.459053 1.832146 -3.568430 -1.056547 0.000000 0.000000 0.000000 1.858951 -3.510385 -0.795969 -6.606299 -4.587623 6.475224 -19.727173 7.377130 42.439131 0.000000 0.000000 0.000000 1.933922 -3.426157 -0.789237 1.567469 -2.633489 7.394435 30.023589 -41.626701 36.636889 1.219132 0.752538 90.914968 0.000000 0.000000 0.000000 1.906201 -3.605912 -0.810690 0.093432 -9.924716 0.677318 -34.357207 20.593782 -16.986465 3.220873 0.147277 -11.879625 0.000000 0.000000 0.000000 
-0.057879 0.687707 0.036730 0.000000 0.000000 0.000000 83.350205 20.636435 -124.521903 -10.765784 21.614398 -9.807284 58.726950 9.432647 6.808561 -27.670929 -8.902727 5.271663 -5.310707 -0.250298 0.017952 0.000000 0.000000 0.000000 85.466376 18.524523 -131.660256 -5.600111 2.057489 8.074168 54.290418 8.335350 12.313371 -29.580491 1.476697 11.553768 -3.001498 -0.234883 -0.025512 0.000000 0.000000 0.000000 81.386649 20.093648 -120.194254 23.292060 5.674022 -2.089417 2.238938 -2.740463 -0.463284 0.000000 0.000000 0.000000 2.306295 -2.684503 -0.222832 -8.064924 -3.570872 4.426491 -18.579049 7.058267 29.590162 0.000000 0.000000 0.000000 2.325412 -2.565502 -0.238839 1.606528 -1.660872 8.566007 13.823991 -38.213416 40.179882 0.918762 0.719307 105.981641 0.000000 0.000000 0.000000 2.277300 -2.792917 -0.282940 0.267449 -9.264652 -0.923952 -27.929788 22.247786 -29.031425 2.858526 -0.196528 -27.589520 0.000000 0.000000 0.000000 
